<svg width="32" height="32" viewBox="0 0 32 32" fill="none" xmlns="http://www.w3.org/2000/svg">
<path d="M13.7001 23.0333C13.9668 22.7667 14.0948 22.4444 14.0841 22.0667C14.0725 21.6889 13.9334 21.3667 13.6668 21.1L9.9001 17.3333H24.7668C25.1445 17.3333 25.4614 17.2053 25.7174 16.9493C25.9725 16.6942 26.1001 16.3778 26.1001 16C26.1001 15.6222 25.9725 15.3053 25.7174 15.0493C25.4614 14.7942 25.1445 14.6667 24.7668 14.6667H9.9001L13.7001 10.8667C13.9668 10.6 14.1001 10.2831 14.1001 9.916C14.1001 9.54978 13.9668 9.23333 13.7001 8.96667C13.4334 8.7 13.1165 8.56667 12.7494 8.56667C12.3832 8.56667 12.0668 8.7 11.8001 8.96667L5.7001 15.0667C5.56676 15.2 5.4721 15.3444 5.4161 15.5C5.36098 15.6556 5.33343 15.8222 5.33343 16C5.33343 16.1778 5.36098 16.3444 5.4161 16.5C5.4721 16.6556 5.56676 16.8 5.7001 16.9333L11.8334 23.0667C12.0779 23.3111 12.3832 23.4333 12.7494 23.4333C13.1165 23.4333 13.4334 23.3 13.7001 23.0333Z" />
</svg>
