<svg width="32" height="32" viewBox="0 0 32 32" fill="none" xmlns="http://www.w3.org/2000/svg">
<path d="M22.7499 18.0167C22.4832 17.75 22.161 17.622 21.7832 17.6327C21.4054 17.6442 21.0832 17.7833 20.8165 18.05L17.0499 21.8167L17.0499 6.94999C17.0499 6.57221 16.9219 6.25532 16.6659 5.99932C16.4108 5.74421 16.0943 5.61665 15.7165 5.61665C15.3388 5.61665 15.0219 5.74421 14.7659 5.99932C14.5108 6.25532 14.3832 6.57221 14.3832 6.94999L14.3832 21.8167L10.5832 18.0167C10.3165 17.75 9.99965 17.6167 9.63254 17.6167C9.26631 17.6167 8.94987 17.75 8.6832 18.0167C8.41654 18.2833 8.2832 18.6002 8.2832 18.9673C8.2832 19.3335 8.41654 19.65 8.6832 19.9167L14.7832 26.0167C14.9165 26.15 15.061 26.2447 15.2165 26.3007C15.3721 26.3558 15.5388 26.3833 15.7165 26.3833C15.8943 26.3833 16.061 26.3558 16.2165 26.3007C16.3721 26.2447 16.5165 26.15 16.6499 26.0167L22.7832 19.8833C23.0276 19.6389 23.1499 19.3335 23.1499 18.9673C23.1499 18.6002 23.0165 18.2833 22.7499 18.0167Z" />
</svg>
