<svg width="32" height="32" viewBox="0 0 32 32" fill="none" xmlns="http://www.w3.org/2000/svg">
<path d="M8.68324 13.9833C8.9499 14.25 9.27213 14.378 9.6499 14.3673C10.0277 14.3558 10.3499 14.2166 10.6166 13.95L14.3832 10.1833L14.3832 25.05C14.3832 25.4278 14.5112 25.7446 14.7672 26.0006C15.0223 26.2558 15.3388 26.3833 15.7166 26.3833C16.0943 26.3833 16.4112 26.2558 16.6672 26.0006C16.9223 25.7446 17.0499 25.4278 17.0499 25.05L17.0499 10.1833L20.8499 13.9833C21.1166 14.25 21.4335 14.3833 21.8006 14.3833C22.1668 14.3833 22.4832 14.25 22.7499 13.9833C23.0166 13.7166 23.1499 13.3998 23.1499 13.0326C23.1499 12.6664 23.0166 12.35 22.7499 12.0833L16.6499 5.98332C16.5166 5.84998 16.3721 5.75531 16.2166 5.69931C16.061 5.6442 15.8943 5.61665 15.7166 5.61665C15.5388 5.61665 15.3721 5.6442 15.2166 5.69931C15.061 5.75531 14.9166 5.84998 14.7832 5.98332L8.6499 12.1166C8.40546 12.3611 8.28323 12.6664 8.28323 13.0326C8.28323 13.3998 8.41657 13.7166 8.68324 13.9833Z" />
</svg>
