<svg width="32" height="32" viewBox="0 0 32 32" fill="none" xmlns="http://www.w3.org/2000/svg">
<path d="M26.6665 21.3333V5.33333H10.6665V21.3333H26.6665ZM29.3332 21.3333C29.3332 22.0406 29.0522 22.7189 28.5521 23.2189C28.052 23.719 27.3737 24 26.6665 24H10.6665C9.95926 24 9.28098 23.719 8.78089 23.2189C8.28079 22.7189 7.99984 22.0406 7.99984 21.3333V5.33333C7.99984 3.85333 9.1865 2.66666 10.6665 2.66666H26.6665C27.3737 2.66666 28.052 2.94762 28.5521 3.44771C29.0522 3.94781 29.3332 4.62609 29.3332 5.33333V21.3333ZM21.3332 26.6667V29.3333H5.33317C4.62593 29.3333 3.94765 29.0524 3.44755 28.5523C2.94746 28.0522 2.6665 27.3739 2.6665 26.6667V9.33333H5.33317V26.6667H21.3332Z" />
</svg>
