<svg width="32" height="32" viewBox="0 0 32 32" fill="none" xmlns="http://www.w3.org/2000/svg">
<path d="M12 21.56L7.37337 16.9333C7.12406 16.684 6.78593 16.544 6.43336 16.544C6.0808 16.544 5.74267 16.684 5.49336 16.9333C5.24406 17.1826 5.104 17.5208 5.104 17.8733C5.104 18.0479 5.13839 18.2208 5.2052 18.3821C5.272 18.5433 5.36992 18.6899 5.49336 18.8133L11.0667 24.3867C11.5867 24.9067 12.4267 24.9067 12.9467 24.3867L27.0534 10.28C27.3027 10.0307 27.4427 9.69256 27.4427 9.34C27.4427 8.98743 27.3027 8.6493 27.0534 8.4C26.8041 8.15069 26.4659 8.01064 26.1134 8.01064C25.7608 8.01064 25.4227 8.15069 25.1734 8.4L12 21.56Z" />
</svg>
