<svg width="32" height="32" viewBox="0 0 32 32" fill="none" xmlns="http://www.w3.org/2000/svg">
<path d="M19.9998 14.6667H17.3332V9.33333C17.3332 8.97971 17.1927 8.64057 16.9427 8.39053C16.6926 8.14048 16.3535 8 15.9998 8C15.6462 8 15.3071 8.14048 15.057 8.39053C14.807 8.64057 14.6665 8.97971 14.6665 9.33333V16C14.6665 16.3536 14.807 16.6928 15.057 16.9428C15.3071 17.1929 15.6462 17.3333 15.9998 17.3333H19.9998C20.3535 17.3333 20.6926 17.1929 20.9427 16.9428C21.1927 16.6928 21.3332 16.3536 21.3332 16C21.3332 15.6464 21.1927 15.3072 20.9427 15.0572C20.6926 14.8071 20.3535 14.6667 19.9998 14.6667ZM15.9998 2.66667C13.3628 2.66667 10.7849 3.44865 8.59224 4.91374C6.39958 6.37883 4.69062 8.46121 3.68145 10.8976C2.67228 13.3339 2.40824 16.0148 2.92271 18.6012C3.43718 21.1876 4.70705 23.5634 6.57175 25.4281C8.43645 27.2928 10.8122 28.5627 13.3986 29.0771C15.9851 29.5916 18.6659 29.3276 21.1023 28.3184C23.5386 27.3092 25.621 25.6003 27.0861 23.4076C28.5512 21.2149 29.3332 18.6371 29.3332 16C29.3293 12.465 27.9233 9.07584 25.4236 6.5762C22.924 4.07655 19.5349 2.67055 15.9998 2.66667ZM15.9998 26.6667C13.8902 26.6667 11.8279 26.0411 10.0738 24.869C8.31964 23.6969 6.95246 22.031 6.14513 20.082C5.33779 18.1329 5.12656 15.9882 5.53813 13.919C5.94971 11.8499 6.96561 9.94929 8.45737 8.45753C9.94913 6.96577 11.8497 5.94987 13.9189 5.53829C15.988 5.12672 18.1327 5.33795 20.0818 6.14529C22.0309 6.95262 23.6968 8.31979 24.8689 10.0739C26.0409 11.828 26.6665 13.8903 26.6665 16C26.663 18.8279 25.538 21.5389 23.5384 23.5386C21.5388 25.5382 18.8277 26.6631 15.9998 26.6667Z" />
</svg>
