<svg width="32" height="32" viewBox="0 0 32 32" fill="none" xmlns="http://www.w3.org/2000/svg">
<path d="M24.3998 7.61333C24.2765 7.48973 24.1299 7.39167 23.9686 7.32476C23.8073 7.25785 23.6344 7.22341 23.4598 7.22341C23.2852 7.22341 23.1123 7.25785 22.951 7.32476C22.7897 7.39167 22.6432 7.48973 22.5198 7.61333L15.9998 14.12L9.47981 7.6C9.35637 7.47656 9.20982 7.37864 9.04853 7.31183C8.88725 7.24502 8.71438 7.21064 8.53981 7.21064C8.36524 7.21064 8.19237 7.24502 8.03109 7.31183C7.8698 7.37864 7.72325 7.47656 7.59981 7.6C7.47637 7.72344 7.37845 7.86999 7.31164 8.03128C7.24483 8.19256 7.21045 8.36543 7.21045 8.54C7.21045 8.71458 7.24483 8.88744 7.31164 9.04873C7.37845 9.21001 7.47637 9.35656 7.59981 9.48L14.1198 16L7.59981 22.52C7.47637 22.6434 7.37845 22.79 7.31164 22.9513C7.24483 23.1126 7.21045 23.2854 7.21045 23.46C7.21045 23.6346 7.24483 23.8074 7.31164 23.9687C7.37845 24.13 7.47637 24.2766 7.59981 24.4C7.72325 24.5234 7.8698 24.6214 8.03109 24.6882C8.19237 24.755 8.36524 24.7894 8.53981 24.7894C8.71438 24.7894 8.88725 24.755 9.04853 24.6882C9.20982 24.6214 9.35637 24.5234 9.47981 24.4L15.9998 17.88L22.5198 24.4C22.6433 24.5234 22.7898 24.6214 22.9511 24.6882C23.1124 24.755 23.2852 24.7894 23.4598 24.7894C23.6344 24.7894 23.8072 24.755 23.9685 24.6882C24.1298 24.6214 24.2764 24.5234 24.3998 24.4C24.5233 24.2766 24.6212 24.13 24.688 23.9687C24.7548 23.8074 24.7892 23.6346 24.7892 23.46C24.7892 23.2854 24.7548 23.1126 24.688 22.9513C24.6212 22.79 24.5233 22.6434 24.3998 22.52L17.8798 16L24.3998 9.48C24.9065 8.97333 24.9065 8.12 24.3998 7.61333Z" />
</svg>
