<svg width="32" height="32" viewBox="0 0 32 32" fill="none" xmlns="http://www.w3.org/2000/svg">
<path d="M16.0002 20.7667C15.8224 20.7667 15.6557 20.7387 15.5002 20.6827C15.3446 20.6276 15.2002 20.5333 15.0668 20.4L10.2668 15.6C10.0224 15.3556 9.90016 15.0444 9.90016 14.6667C9.90016 14.2889 10.0224 13.9778 10.2668 13.7333C10.5113 13.4889 10.8277 13.3609 11.2162 13.3493C11.6055 13.3387 11.9224 13.4556 12.1668 13.7L14.6668 16.2V6.66667C14.6668 6.28889 14.7948 5.972 15.0508 5.716C15.3059 5.46089 15.6224 5.33334 16.0002 5.33334C16.3779 5.33334 16.6948 5.46089 16.9508 5.716C17.2059 5.972 17.3335 6.28889 17.3335 6.66667V16.2L19.8335 13.7C20.0779 13.4556 20.3948 13.3387 20.7842 13.3493C21.1726 13.3609 21.4891 13.4889 21.7335 13.7333C21.9779 13.9778 22.1002 14.2889 22.1002 14.6667C22.1002 15.0444 21.9779 15.3556 21.7335 15.6L16.9335 20.4C16.8002 20.5333 16.6557 20.6276 16.5002 20.6827C16.3446 20.7387 16.1779 20.7667 16.0002 20.7667ZM8.00016 26.6667C7.26683 26.6667 6.63927 26.4058 6.1175 25.884C5.59483 25.3613 5.3335 24.7333 5.3335 24V21.3333C5.3335 20.9556 5.46105 20.6387 5.71616 20.3827C5.97216 20.1276 6.28905 20 6.66683 20C7.04461 20 7.3615 20.1276 7.6175 20.3827C7.87261 20.6387 8.00016 20.9556 8.00016 21.3333V24H24.0002V21.3333C24.0002 20.9556 24.1282 20.6387 24.3842 20.3827C24.6393 20.1276 24.9557 20 25.3335 20C25.7113 20 26.0277 20.1276 26.2828 20.3827C26.5388 20.6387 26.6668 20.9556 26.6668 21.3333V24C26.6668 24.7333 26.4059 25.3613 25.8842 25.884C25.3615 26.4058 24.7335 26.6667 24.0002 26.6667H8.00016Z" />
</svg>
