<svg width="32" height="32" viewBox="0 0 32 32" fill="none" xmlns="http://www.w3.org/2000/svg">
<path d="M4.94681 21.72C4.82001 21.5986 4.67048 21.5035 4.50681 21.44C4.1822 21.3066 3.8181 21.3066 3.49348 21.44C3.32981 21.5035 3.18029 21.5986 3.05348 21.72C2.93209 21.8468 2.83694 21.9963 2.77348 22.16C2.67137 22.4028 2.64348 22.6704 2.69331 22.9291C2.74314 23.1877 2.86847 23.4258 3.05348 23.6133C3.18308 23.7311 3.3319 23.8258 3.49348 23.8933C3.65308 23.9639 3.82565 24.0003 4.00015 24.0003C4.17464 24.0003 4.34721 23.9639 4.50681 23.8933C4.66839 23.8258 4.81721 23.7311 4.94681 23.6133C5.13182 23.4258 5.25715 23.1877 5.30698 22.9291C5.35682 22.6704 5.32892 22.4028 5.22681 22.16C5.16336 21.9963 5.0682 21.8468 4.94681 21.72ZM9.33348 10.6667H28.0001C28.3538 10.6667 28.6929 10.5262 28.943 10.2761C29.193 10.0261 29.3335 9.68696 29.3335 9.33333C29.3335 8.97971 29.193 8.64057 28.943 8.39052C28.6929 8.14048 28.3538 8 28.0001 8H9.33348C8.97986 8 8.64072 8.14048 8.39067 8.39052C8.14062 8.64057 8.00015 8.97971 8.00015 9.33333C8.00015 9.68696 8.14062 10.0261 8.39067 10.2761C8.64072 10.5262 8.97986 10.6667 9.33348 10.6667ZM4.94681 15.0533C4.75932 14.8683 4.52122 14.743 4.26257 14.6932C4.00391 14.6433 3.73629 14.6712 3.49348 14.7733C3.3319 14.8409 3.18308 14.9356 3.05348 15.0533C2.93209 15.1801 2.83694 15.3297 2.77348 15.4933C2.70294 15.6529 2.6665 15.8255 2.6665 16C2.6665 16.1745 2.70294 16.3471 2.77348 16.5067C2.841 16.6682 2.93571 16.8171 3.05348 16.9467C3.18308 17.0644 3.3319 17.1591 3.49348 17.2267C3.65308 17.2972 3.82565 17.3336 4.00015 17.3336C4.17464 17.3336 4.34721 17.2972 4.50681 17.2267C4.66839 17.1591 4.81721 17.0644 4.94681 16.9467C5.06459 16.8171 5.15929 16.6682 5.22681 16.5067C5.29735 16.3471 5.33379 16.1745 5.33379 16C5.33379 15.8255 5.29735 15.6529 5.22681 15.4933C5.16336 15.3297 5.0682 15.1801 4.94681 15.0533ZM28.0001 14.6667H9.33348C8.97986 14.6667 8.64072 14.8071 8.39067 15.0572C8.14062 15.3072 8.00015 15.6464 8.00015 16C8.00015 16.3536 8.14062 16.6928 8.39067 16.9428C8.64072 17.1929 8.97986 17.3333 9.33348 17.3333H28.0001C28.3538 17.3333 28.6929 17.1929 28.943 16.9428C29.193 16.6928 29.3335 16.3536 29.3335 16C29.3335 15.6464 29.193 15.3072 28.943 15.0572C28.6929 14.8071 28.3538 14.6667 28.0001 14.6667ZM4.94681 8.38667C4.82001 8.26528 4.67048 8.17013 4.50681 8.10667C4.264 8.00456 3.99638 7.97666 3.73773 8.0265C3.47908 8.07633 3.24098 8.20166 3.05348 8.38667C2.93571 8.51627 2.841 8.66509 2.77348 8.82667C2.70294 8.98627 2.6665 9.15884 2.6665 9.33333C2.6665 9.50783 2.70294 9.6804 2.77348 9.84C2.841 10.0016 2.93571 10.1504 3.05348 10.28C3.18308 10.3978 3.3319 10.4925 3.49348 10.56C3.73629 10.6621 4.00391 10.69 4.26257 10.6402C4.52122 10.5903 4.75932 10.465 4.94681 10.28C5.06459 10.1504 5.15929 10.0016 5.22681 9.84C5.29735 9.6804 5.33379 9.50783 5.33379 9.33333C5.33379 9.15884 5.29735 8.98627 5.22681 8.82667C5.15929 8.66509 5.06459 8.51627 4.94681 8.38667ZM28.0001 21.3333H9.33348C8.97986 21.3333 8.64072 21.4738 8.39067 21.7239C8.14062 21.9739 8.00015 22.313 8.00015 22.6667C8.00015 23.0203 8.14062 23.3594 8.39067 23.6095C8.64072 23.8595 8.97986 24 9.33348 24H28.0001C28.3538 24 28.6929 23.8595 28.943 23.6095C29.193 23.3594 29.3335 23.0203 29.3335 22.6667C29.3335 22.313 29.193 21.9739 28.943 21.7239C28.6929 21.4738 28.3538 21.3333 28.0001 21.3333Z" />
</svg>
