<svg width="32" height="32" viewBox="0 0 32 32" fill="none" xmlns="http://www.w3.org/2000/svg">
<path d="M28.1999 3.81333C27.6905 3.29408 27.0445 2.92962 26.3367 2.7621C25.6288 2.59458 24.888 2.63083 24.1999 2.86667L5.33324 9.17333C4.57232 9.4224 3.90749 9.90153 3.43051 10.5446C2.95353 11.1876 2.68792 11.9629 2.67036 12.7633C2.6528 13.5638 2.88415 14.3499 3.33247 15.0133C3.78079 15.6766 4.42398 16.1845 5.17324 16.4667L12.1599 19.1333C12.319 19.1942 12.4638 19.2871 12.5854 19.4064C12.707 19.5257 12.8027 19.6688 12.8666 19.8267L15.5332 26.8267C15.8047 27.5653 16.2973 28.2023 16.9439 28.6509C17.5905 29.0995 18.3596 29.3378 19.1466 29.3333H19.2399C20.0413 29.3187 20.818 29.0538 21.4612 28.5756C22.1044 28.0974 22.5818 27.4299 22.8266 26.6667L29.1332 7.77333C29.3626 7.09192 29.3967 6.35992 29.2318 5.66011C29.0669 4.96031 28.7094 4.3206 28.1999 3.81333ZM26.6666 6.93333L20.2932 25.84C20.2192 26.0793 20.0706 26.2886 19.8691 26.4374C19.6675 26.5861 19.4237 26.6665 19.1732 26.6667C18.9242 26.6707 18.6799 26.5989 18.4727 26.4608C18.2655 26.3227 18.1052 26.1247 18.0132 25.8933L15.3466 18.8933C15.1532 18.3847 14.8551 17.9224 14.4715 17.5365C14.0879 17.1506 13.6274 16.8497 13.1199 16.6533L6.1199 13.9867C5.88376 13.9001 5.68077 13.7416 5.53961 13.5335C5.39846 13.3253 5.32626 13.0781 5.33324 12.8267C5.33344 12.5762 5.41379 12.3324 5.56254 12.1308C5.71128 11.9293 5.92061 11.7807 6.1599 11.7067L25.0666 5.4C25.2836 5.31153 25.5217 5.28783 25.7519 5.33177C25.9822 5.3757 26.1948 5.4854 26.364 5.64758C26.5333 5.80977 26.6519 6.01751 26.7056 6.24568C26.7593 6.47386 26.7457 6.7127 26.6666 6.93333Z" />
</svg>
