<svg width="32" height="32" viewBox="0 0 32 32" fill="none" xmlns="http://www.w3.org/2000/svg">
<path d="M16.0002 16C16.7335 16 17.3615 15.7387 17.8842 15.216C18.4059 14.6942 18.6668 14.0667 18.6668 13.3333C18.6668 12.6 18.4059 11.972 17.8842 11.4493C17.3615 10.9276 16.7335 10.6667 16.0002 10.6667C15.2668 10.6667 14.6393 10.9276 14.1175 11.4493C13.5948 11.972 13.3335 12.6 13.3335 13.3333C13.3335 14.0667 13.5948 14.6942 14.1175 15.216C14.6393 15.7387 15.2668 16 16.0002 16ZM16.0002 29.3333C12.4224 26.2889 9.75038 23.4609 7.98416 20.8493C6.21705 18.2387 5.3335 15.8222 5.3335 13.6C5.3335 10.2667 6.40594 7.61111 8.55083 5.63333C10.6948 3.65555 13.1779 2.66666 16.0002 2.66666C18.8224 2.66666 21.3055 3.65555 23.4495 5.63333C25.5944 7.61111 26.6668 10.2667 26.6668 13.6C26.6668 15.8222 25.7837 18.2387 24.0175 20.8493C22.2504 23.4609 19.5779 26.2889 16.0002 29.3333Z"/>
</svg>
