<svg width="32" height="32" viewBox="0 0 32 32" fill="none" xmlns="http://www.w3.org/2000/svg">
<path d="M19.5333 6.64L12.8667 4.30666C12.3067 4.10666 11.6933 4.10666 11.1333 4.29333L5.81333 6.08C4.73333 6.45333 4 7.46666 4 8.61333V24.4133C4 26.2933 5.88 27.5733 7.62667 26.8933L11.5333 25.3733C11.8267 25.2533 12.16 25.2533 12.4533 25.36L19.12 27.6933C19.68 27.8933 20.2933 27.8933 20.8533 27.7067L26.1733 25.92C27.2533 25.56 27.9867 24.5333 27.9867 23.3867V7.58666C27.9867 5.70666 26.1067 4.42666 24.36 5.10666L20.4533 6.62666C20.16 6.73333 19.84 6.74666 19.5333 6.64ZM20 25.1867L12 22.3733V6.81333L20 9.62666V25.1867Z" />
</svg>
