<svg width="32" height="32" viewBox="0 0 32 32" fill="none" xmlns="http://www.w3.org/2000/svg">
<path d="M23.9998 17.3307H17.3332V23.9973C17.3332 24.351 17.1927 24.6901 16.9426 24.9401C16.6926 25.1902 16.3535 25.3307 15.9998 25.3307C15.6462 25.3307 15.3071 25.1902 15.057 24.9401C14.807 24.6901 14.6665 24.351 14.6665 23.9973V17.3307H7.99984C7.64622 17.3307 7.30708 17.1902 7.05703 16.9401C6.80698 16.6901 6.6665 16.351 6.6665 15.9973C6.6665 15.6437 6.80698 15.3046 7.05703 15.0545C7.30708 14.8045 7.64622 14.664 7.99984 14.664H14.6665V7.99733C14.6665 7.64371 14.807 7.30457 15.057 7.05453C15.3071 6.80448 15.6462 6.664 15.9998 6.664C16.3535 6.664 16.6926 6.80448 16.9426 7.05453C17.1927 7.30457 17.3332 7.64371 17.3332 7.99733V14.664H23.9998C24.3535 14.664 24.6926 14.8045 24.9426 15.0545C25.1927 15.3046 25.3332 15.6437 25.3332 15.9973C25.3332 16.351 25.1927 16.6901 24.9426 16.9401C24.6926 17.1902 24.3535 17.3307 23.9998 17.3307Z" />
</svg>
