<svg width="32" height="32" viewBox="0 0 32 32" fill="none" xmlns="http://www.w3.org/2000/svg">
<path d="M4 14.6667H14.6667V4H4V14.6667ZM6.66667 6.66667H12V12H6.66667V6.66667ZM4 28H14.6667V17.3333H4V28ZM6.66667 20H12V25.3333H6.66667V20ZM17.3333 4V14.6667H28V4H17.3333ZM25.3333 12H20V6.66667H25.3333V12ZM25.3333 25.3333H28V28H25.3333V25.3333ZM17.3333 17.3333H20V20H17.3333V17.3333ZM20 20H22.6667V22.6667H20V20ZM17.3333 22.6667H20V25.3333H17.3333V22.6667ZM20 25.3333H22.6667V28H20V25.3333ZM22.6667 22.6667H25.3333V25.3333H22.6667V22.6667ZM22.6667 17.3333H25.3333V20H22.6667V17.3333ZM25.3333 20H28V22.6667H25.3333V20Z" />
</svg>
