<svg width="32" height="32" viewBox="0 0 32 32" fill="none" xmlns="http://www.w3.org/2000/svg">
<path d="M10.5601 10.0533C9.49342 9.6 9.04009 8.28 9.68009 7.32C10.9734 5.4 13.1334 4 15.9868 4C19.1201 4 21.2668 5.42667 22.3601 7.21333C23.2934 8.74667 23.8401 11.6133 22.4001 13.7467C20.8001 16.1067 19.2668 16.8267 18.4401 18.3467C18.2401 18.7067 18.1201 19 18.0401 19.6C17.9201 20.5733 17.1201 21.3333 16.1334 21.3333C14.9734 21.3333 14.0268 20.3333 14.1601 19.1733C14.2401 18.4933 14.4001 17.7867 14.7734 17.12C15.8001 15.2667 17.7734 14.1733 18.9201 12.5333C20.1334 10.8133 19.4534 7.6 16.0134 7.6C14.4534 7.6 13.4401 8.41333 12.8134 9.38667C12.3468 10.1467 11.3734 10.3867 10.5601 10.0533ZM18.6668 26.6667C18.6668 28.1333 17.4668 29.3333 16.0001 29.3333C14.5334 29.3333 13.3334 28.1333 13.3334 26.6667C13.3334 25.2 14.5334 24 16.0001 24C17.4668 24 18.6668 25.2 18.6668 26.6667Z" />
</svg>
