<svg width="32" height="32" viewBox="0 0 32 32" fill="none" xmlns="http://www.w3.org/2000/svg">
<path fill-rule="evenodd" clip-rule="evenodd" d="M21.3333 4.33333C21.3333 3.6 21.9333 3 22.6667 3C23.4 3 24 3.6 24 4.33333V5.66667H25.3333C26.8 5.66667 28 6.86667 28 8.33333V27C28 28.4667 26.8 29.6667 25.3333 29.6667H6.66667C5.95942 29.6667 5.28115 29.3857 4.78105 28.8856C4.28095 28.3855 4 27.7072 4 27L4.01333 8.33333C4.01333 6.86667 5.18667 5.66667 6.66667 5.66667H8V4.33333C8 3.6 8.6 3 9.33333 3C10.0667 3 10.6667 3.6 10.6667 4.33333V5.66667H21.3333V4.33333ZM6.66667 27H25.3333V13.6667H6.66667V27ZM21.3724 16.3813L21.2824 16.2913C20.8924 15.9013 20.2524 15.9013 19.8724 16.3013L15.0924 21.0913L12.7924 18.7913C12.6999 18.6986 12.59 18.625 12.4691 18.5748C12.3481 18.5246 12.2184 18.4988 12.0874 18.4988C11.9565 18.4988 11.8268 18.5246 11.7058 18.5748C11.5848 18.625 11.475 18.6986 11.3824 18.7913L11.2924 18.8813C11.1997 18.9738 11.1262 19.0837 11.076 19.2046C11.0258 19.3256 11 19.4553 11 19.5863C11 19.7172 11.0258 19.8469 11.076 19.9679C11.1262 20.0889 11.1997 20.1987 11.2924 20.2913L14.3824 23.3813C14.475 23.474 14.5848 23.5475 14.7058 23.5977C14.8268 23.6479 14.9565 23.6737 15.0874 23.6737C15.2184 23.6737 15.3481 23.6479 15.4691 23.5977C15.59 23.5475 15.6999 23.474 15.7924 23.3813L21.3724 17.7913C21.7624 17.4013 21.7624 16.7713 21.3724 16.3813Z" />
</svg>
