<svg width="32" height="32" viewBox="0 0 32 32" fill="none" xmlns="http://www.w3.org/2000/svg">
<path d="M26.1687 10.7858C26.1849 11.0132 26.1849 11.2406 26.1849 11.468C26.1849 18.404 20.9058 26.3959 11.257 26.3959C8.28445 26.3959 5.52305 25.535 3.2002 24.0406C3.62255 24.0893 4.0286 24.1056 4.4672 24.1056C6.91995 24.1056 9.17785 23.2772 10.9809 21.864C8.6743 21.8152 6.7413 20.3046 6.0753 18.2254C6.4002 18.2741 6.72505 18.3066 7.0662 18.3066C7.53725 18.3066 8.00835 18.2416 8.4469 18.1279C6.04285 17.6406 4.23975 15.5289 4.23975 12.9787V12.9137C4.9382 13.3036 5.75045 13.5472 6.6113 13.5797C5.1981 12.6375 4.27225 11.0294 4.27225 9.21013C4.27225 8.23553 4.5321 7.34213 4.98695 6.56243C7.5697 9.74618 11.4519 11.8253 15.8052 12.0528C15.724 11.6629 15.6752 11.2569 15.6752 10.8508C15.6752 7.95938 18.0143 5.60408 20.9219 5.60408C22.4326 5.60408 23.797 6.23758 24.7554 7.26093C25.9412 7.03353 27.0782 6.59493 28.0854 5.99393C27.6955 7.21223 26.8671 8.23558 25.7788 8.88528C26.8346 8.77163 27.858 8.47918 28.8001 8.07313C28.0855 9.11268 27.192 10.0385 26.1687 10.7858Z" />
</svg>
