<svg width="32" height="32" viewBox="0 0 32 32" fill="none" xmlns="http://www.w3.org/2000/svg">
<path d="M5.33333 28C4.95556 28 4.63911 27.872 4.384 27.616C4.128 27.3609 4 27.0444 4 26.6667C4 26.2889 4.128 25.9724 4.384 25.7173C4.63911 25.4613 4.95556 25.3333 5.33333 25.3333H6.66667V6.66667C6.66667 5.93333 6.928 5.30533 7.45067 4.78267C7.97244 4.26089 8.6 4 9.33333 4H22.6667C23.4 4 24.028 4.26089 24.5507 4.78267C25.0724 5.30533 25.3333 5.93333 25.3333 6.66667V25.3333H26.6667C27.0444 25.3333 27.3609 25.4613 27.616 25.7173C27.872 25.9724 28 26.2889 28 26.6667C28 27.0444 27.872 27.3609 27.616 27.616C27.3609 27.872 27.0444 28 26.6667 28H5.33333ZM22.6667 25.3333V6.66667H16.6667V5.2C17.6444 5.37778 18.4444 5.83333 19.0667 6.56667C19.6889 7.3 20 8.15556 20 9.13333V23.9333C20 24.5778 19.7889 25.1502 19.3667 25.6507C18.9444 26.1502 18.4111 26.4556 17.7667 26.5667V25.3333H22.6667ZM14.6667 17.3333C15.0444 17.3333 15.3613 17.2053 15.6173 16.9493C15.8724 16.6942 16 16.3778 16 16C16 15.6222 15.8724 15.3053 15.6173 15.0493C15.3613 14.7942 15.0444 14.6667 14.6667 14.6667C14.2889 14.6667 13.9724 14.7942 13.7173 15.0493C13.4613 15.3053 13.3333 15.6222 13.3333 16C13.3333 16.3778 13.4613 16.6942 13.7173 16.9493C13.9724 17.2053 14.2889 17.3333 14.6667 17.3333Z" />
</svg>
